{"title":"The Coral Sea redux(1997)MPEG-4[Voyages of Dascubadude]","uid":13290320,"size":346788560,"categoryP":"video","categoryS":"other","magnet":"?xt=urn:btih:64f081413055cbb4215e982dd980d50b909d9f38&amp;dn=The+Coral+Sea+redux%281997%29MPEG-4%5BVoyages+of+Dascubadude%5D&amp;tr=udp%3A%2F%2Ftracker.leechers-paradise.org%3A6969&amp;tr=udp%3A%2F%2Fzer0day.ch%3A1337&amp;tr=udp%3A%2F%2Fopen.demonii.com%3A1337&amp;tr=udp%3A%2F%2Ftracker.coppersurfer.tk%3A6969&amp;tr=udp%3A%2F%2Fexodus.desync.com%3A6969","seeders":0,"leechers":0,"uploader":"dascuba","files":1,"time":1453585681,"description":"Feb.4,1997,12:01am, I left Townsville on a week long 'Mike Ball Diving trip on a 108 foot long Catamaran where we saw lots of sea creatures, dove a shark cage and explored a wreck. Enjoy!\r\n\r\nGeneral\r\nComplete name                            :The Coral Sea Feb97 ReduxCoral Sea.mp4\r\nFormat                                   : MPEG-4\r\nFormat profile                           : Base Media\r\nCodec ID                                 : isom\r\nFile size                                : 331 MiB\r\nDuration                                 : 34mn 12s\r\nOverall bit rate                         : 1 352 Kbps\r\nMovie name                               : DVD_Video_Recording\r\nWriting application                      : Lavf54.6.100\r\n\r\nVideo\r\nID                                       : 1\r\nFormat                                   : AVC\r\nFormat/Info                              : Advanced Video Codec\r\nFormat profile                           :   \r\nFormat settings, CABAC                   : No\r\nFormat settings, ReFrames                : 6 frames\r\nCodec ID                                 : avc1\r\nCodec ID/Info                            : Advanced Video Coding\r\nDuration                                 : 34mn 12s\r\nBit rate                                 : 1 217 Kbps\r\nWidth                                    : 720 pixels\r\nHeight                                   : 540 pixels\r\nDisplay aspect ratio                     : 4:3\r\nFrame rate mode                          : Constant\r\nFrame rate                               : 29.970 fps\r\nColor space                              : YUV\r\nChroma subsampling                       : 4:2:0\r\nBit depth                                : 8 bits\r\nScan type                                : Progressive\r\nBits/(Pixel*Frame)                       : 0.104\r\nStream size                              : 298 MiB (90%)\r\n\r\nAudio\r\nID                                       : 2\r\nFormat                                   : AAC\r\nFormat/Info                              : Advanced Audio Codec\r\nFormat profile                           : LC\r\nCodec ID                                 : 40\r\nDuration                                 : 34mn 12s\r\nBit rate mode                            : Constant\r\nBit rate                                 : 128 Kbps\r\nChannel(s)                               : 2 channels\r\nChannel positions                        : Front: L R\r\nSampling rate                            : 44.1 KHz\r\nCompression mode                         : Lossy\r\nStream size                              : 31.3 MiB (9%)","torrent":{"xt":"urn:btih:64f081413055cbb4215e982dd980d50b909d9f38","amp;dn":"The+Coral+Sea+redux%281997%29MPEG-4%5BVoyages+of+Dascubadude%5D","amp;tr":["udp%3A%2F%2Ftracker.leechers-paradise.org%3A6969","udp%3A%2F%2Fzer0day.ch%3A1337","udp%3A%2F%2Fopen.demonii.com%3A1337","udp%3A%2F%2Ftracker.coppersurfer.tk%3A6969","udp%3A%2F%2Fexodus.desync.com%3A6969"],"infoHash":"64f081413055cbb4215e982dd980d50b909d9f38","infoHashBuffer":{"type":"Buffer","data":[100,240,129,65,48,85,203,180,33,94,152,45,217,128,213,11,144,157,159,56]},"announce":[],"urlList":[]}}